PathFileType	4	(X/Y/Z)	s01c0201.trc
DataRate	CameraRate	NumFrames	NumMarkers	Units	OrigDataRate	OrigDataStartFrame	OrigNumFrames
200	200	4	48	mm	200	1000	2000
Frame#	Time	racr			lacr			c7			jug			rlel			rdr			llel			ldr			s2			lic			ric			lasi			rasi			rpsi			lpsi			rgt			lgt			rth1			rth2			rth3			rth4			rlfc			rsh1			rsh2			rsh3			rsh4			rlmal			rmmal			rcal			rtoe			rmt5			lth1			lth2			lth4			lth3			llfc			lsh1			lsh2			lsh3			lsh4			llmal			lmmal			lcal			ltoe			lmt5			SBIKE			LBIKE			RBIKE			
		X1	Y1	Z1	X2	Y2	Z2	X3	Y3	Z3	X4	Y4	Z4	X5	Y5	Z5	X6	Y6	Z6	X7	Y7	Z7	X8	Y8	Z8	X9	Y9	Z9	X10	Y10	Z10	X11	Y11	Z11	X12	Y12	Z12	X13	Y13	Z13	X14	Y14	Z14	X15	Y15	Z15	X16	Y16	Z16	X17	Y17	Z17	X18	Y18	Z18	X19	Y19	Z19	X20	Y20	Z20	X21	Y21	Z21	X22	Y22	Z22	X23	Y23	Z23	X24	Y24	Z24	X25	Y25	Z25	X26	Y26	Z26	X27	Y27	Z27	X28	Y28	Z28	X29	Y29	Z29	X30	Y30	Z30	X31	Y31	Z31	X32	Y32	Z32	X33	Y33	Z33	X34	Y34	Z34	X35	Y35	Z35	X36	Y36	Z36	X37	Y37	Z37	X38	Y38	Z38	X39	Y39	Z39	X40	Y40	Z40	X41	Y41	Z41	X42	Y42	Z42	X43	Y43	Z43	X44	Y44	Z44	X45	Y45	Z45	X46	Y46	Z46	X47	Y47	Z47	X48	Y48	Z48	
1000	5.0000	529.235840	1228.772217	-82.801765	515.428345	1235.688599	-447.718750	505.925781	1351.600098	-257.169800	488.220001	1184.740112	-262.409515	459.624298	971.933838	40.853504	656.066833	873.235840	-54.811798	457.539093	970.291016	-554.884338	655.996582	881.765320	-436.233978	-21.565943	1152.646606	-233.482468	124.042213	1173.164062	-421.209473	141.552399	1158.726318	-84.331856	134.491074	1117.402832	-397.834229	170.746552	1122.676147	-117.730080	9.357118	1192.908081	-182.598221	0.012661	1198.366699	-286.236481	108.905502	1057.272095	-53.030590	72.216156	1024.191406	-432.928711	229.546463	1011.198303	-53.932697	309.905243	994.791382	-66.687187	393.636200	970.805786	-85.447357	321.171234	1046.893555	-84.708939	473.593414	908.749756	-123.035942	391.653046	837.065369	-86.869583	333.335663	776.211243	-87.798874	266.005432	717.813171	-93.313225	367.093140	741.001343	-122.775948	169.153229	639.837097	-104.980537	208.414856	620.637451	-183.691330	121.442139	645.443115	-160.183899	282.208588	426.585480	-133.698898	191.727722	490.471924	-70.549652	118.191872	902.274475	-436.793579	175.757111	834.163757	-438.372589	218.512482	868.906677	-438.832428	225.328293	766.179565	-420.410370	279.850037	662.371033	-406.339050	232.722427	562.263611	-443.064911	220.080276	476.600525	-435.916931	205.251907	392.897522	-422.503296	276.100067	470.920990	-410.865662	193.430313	264.305115	-409.112885	194.099838	236.167145	-361.417938	142.098587	233.409439	-364.436584	412.797028	184.990768	-373.763275	306.239990	169.428619	-439.583435	-223.309128	893.703430	-249.562119	-12.174971	84.417404	-453.832703	-20.325674	80.914024	-53.793747	
1001	5.0050	528.212891	1229.487427	-80.145241	517.224548	1236.123657	-445.382812	506.390137	1351.892944	-255.028519	488.440857	1185.116455	-260.417847	458.985382	971.619751	40.403976	655.937988	873.400635	-55.101650	458.405487	971.924500	-554.615295	656.268921	881.962708	-436.271149	-21.591007	1153.386597	-235.166962	126.004326	1172.591675	-421.961151	140.783554	1159.552979	-84.958275	135.112427	1117.378052	-398.631866	170.265900	1123.530762	-118.196655	9.154379	1193.420288	-184.131058	0.306940	1198.681641	-287.845795	108.236214	1058.753296	-53.519386	72.295799	1024.452759	-433.968048	228.406891	1014.008972	-54.605049	309.348511	998.877808	-66.436180	392.614014	976.843262	-83.843445	319.784576	1051.174316	-84.507195	475.777863	916.678467	-121.305756	393.201508	844.616394	-86.433685	335.824707	783.284912	-87.902847	269.125824	724.185974	-93.825790	370.476379	747.837891	-122.350479	173.800980	643.913574	-106.564293	214.411148	625.479309	-184.926788	126.040649	647.827148	-161.716644	292.937042	433.902008	-133.283691	200.353531	495.596222	-70.889122	116.401161	902.198975	-438.175720	172.827301	833.001404	-439.815491	216.442780	867.175476	-440.496857	221.267685	764.313843	-421.963837	273.971130	659.596558	-407.749481	225.651230	559.813782	-444.175476	212.694565	474.263916	-436.681366	197.356567	390.719238	-423.015106	268.855377	468.306885	-412.140900	182.998016	263.562317	-408.700623	185.752228	233.154007	-362.568207	133.887848	231.815430	-364.290070	403.580750	179.538620	-373.961029	296.749481	165.515381	-439.629486	-223.348175	893.752319	-249.625916	-12.197363	84.427658	-453.859497	-20.342501	80.946846	-53.806511	
1002	5.0100	527.181030	1230.253052	-77.466797	518.974854	1236.572632	-443.002411	506.882690	1352.089355	-252.836578	488.603851	1185.467651	-258.350006	458.231720	971.310730	40.076996	655.811646	873.557312	-55.362682	459.412628	973.619629	-554.247620	656.571289	882.099182	-436.316559	-21.746462	1153.862183	-236.583130	126.254105	1171.874268	-421.033356	139.927872	1160.415527	-85.553162	135.696625	1117.499878	-399.526276	169.730743	1124.607788	-118.724037	8.946753	1193.902832	-185.547913	0.576016	1199.088257	-289.408264	107.553001	1060.541016	-54.021255	72.086731	1024.792480	-434.768616	227.393753	1017.027710	-55.129002	308.625519	1003.115662	-66.513016	395.005737	982.026672	-84.951469	318.337402	1055.534546	-84.498550	477.147919	924.425171	-120.216698	394.617706	852.173645	-86.087379	338.285645	789.614075	-88.005394	272.482666	729.523987	-94.441910	373.417114	754.354492	-122.086449	178.859558	647.003357	-108.525124	220.465927	629.379211	-185.843597	131.379227	649.580078	-163.110626	303.655090	440.573883	-133.285843	209.466934	499.883362	-71.257011	114.760567	902.307556	-439.491302	170.127502	832.135681	-441.306061	214.262009	865.745483	-442.185730	217.516174	762.862000	-423.723907	268.649170	657.329651	-409.208649	219.226166	558.004089	-445.341248	205.559036	472.643738	-437.476624	189.605637	389.239655	-423.564514	261.874268	466.110931	-413.368713	172.967499	263.241364	-408.461609	177.193497	231.197983	-363.275604	125.426529	230.935822	-364.311218	394.053619	174.869858	-374.125244	287.000153	162.300644	-439.704956	-223.393021	893.804443	-249.738297	-12.196113	84.464279	-453.839447	-20.335268	80.935516	-53.807224	
1003	5.0150	526.084534	1230.797607	-74.884438	520.797668	1236.934814	-440.539948	507.349731	1352.222656	-250.606842	488.800873	1185.936768	-256.329468	457.383453	970.810791	39.802055	655.743774	873.669067	-55.617054	460.391571	975.317871	-554.033813	656.891541	882.225281	-436.421448	-21.980682	1154.582520	-237.861237	128.001328	1171.542114	-421.466980	139.031342	1161.366699	-85.997200	136.238281	1117.759155	-400.530182	168.999741	1125.831665	-119.289909	8.636212	1194.556641	-186.975739	0.810811	1199.594238	-290.923126	106.887108	1062.509766	-54.527309	71.814087	1025.379028	-435.776855	226.360245	1020.087219	-55.708828	307.687256	1007.277161	-66.947647	394.370239	987.488403	-84.519707	316.905457	1060.178467	-84.500366	477.991608	931.674133	-119.025291	396.075928	858.632874	-85.791100	340.898743	795.081238	-87.973793	276.231781	733.804993	-94.854126	377.079193	760.214233	-121.243027	184.659058	649.746033	-109.374664	226.692017	632.518433	-186.292908	136.373642	650.554932	-163.480301	314.477783	446.501465	-133.205399	218.625916	503.397858	-71.372688	113.318321	902.535889	-440.821930	167.723282	831.581055	-442.824615	212.348663	864.662415	-443.933472	214.247726	761.646790	-425.502502	263.897247	655.568237	-410.663574	213.349182	556.747925	-446.402618	198.705460	471.711090	-438.218628	181.988007	388.407379	-424.068970	255.157516	464.525513	-414.615021	163.329590	263.391937	-408.371521	168.428619	230.355103	-363.491180	116.706947	230.798828	-364.563019	384.362091	170.636475	-374.263763	277.086700	159.756210	-439.785339	-223.449921	893.839966	-249.829865	-12.212170	84.435806	-453.874146	-20.338741	80.973251	-53.833195	
